<svg height="58" width="75" xmlns="http://www.w3.org/2000/svg" class="behance-svg" viewBox="0 0 152.5 28.2"><path d="M13.1 0c1.3 0 2.5.1 3.6.4 1.1.2 2 .6 2.8 1.1s1.4 1.2 1.8 2.1.6 2 .6 3.2c0 1.4-.3 2.6-1 3.5-.6.9-1.6 1.7-2.8 2.3 1.7.5 3 1.4 3.8 2.6s1.3 2.7 1.3 4.4c0 1.4-.3 2.6-.8 3.6s-1.3 1.9-2.2 2.5-2 1.1-3.2 1.4-2.4.5-3.6.5H0V0h13.1zm-.8 11.2c1.1 0 2-.3 2.7-.8s1-1.4 1-2.5c0-.6-.1-1.2-.3-1.6s-.5-.7-.9-1c-.4-.2-.8-.4-1.3-.5s-1-.1-1.6-.1H6.1v6.5h6.2zm.3 11.8c.6 0 1.2-.1 1.7-.2s1-.3 1.4-.6.7-.6 1-1.1c.2-.5.4-1.1.4-1.8 0-1.4-.4-2.4-1.2-3.1-.8-.6-1.9-.9-3.2-.9H6.1V23h6.5zM31.9 22.9c.8.8 2 1.2 3.6 1.2 1.1 0 2.1-.3 2.9-.8.8-.6 1.3-1.2 1.5-1.8h4.9c-.8 2.4-2 4.1-3.6 5.2-1.6 1-3.5 1.6-5.8 1.6-1.6 0-3-.3-4.3-.8s-2.3-1.2-3.2-2.2c-.9-.9-1.6-2-2-3.3-.5-1.3-.7-2.7-.7-4.3 0-1.5.2-2.9.7-4.2s1.2-2.4 2.1-3.4c.9-.9 2-1.7 3.2-2.2 1.3-.5 2.6-.8 4.2-.8 1.7 0 3.2.3 4.5 1s2.3 1.5 3.1 2.7c.8 1.1 1.4 2.4 1.8 3.8.2 1.4.3 2.8.2 4.4H30.5c0 1.6.6 3.1 1.4 3.9zm6.3-10.5c-.7-.7-1.8-1.1-3.1-1.1-.9 0-1.6.2-2.2.5s-1 .7-1.4 1.1-.6.9-.7 1.4-.2.9-.2 1.3h9c-.2-1.5-.7-2.5-1.4-3.2zM52.8 0v10.4h.1c.7-1.2 1.6-2 2.7-2.5s2.1-.8 3.2-.8c1.5 0 2.7.2 3.6.6s1.7 1 2.2 1.7.9 1.6 1.1 2.6.3 2.1.3 3.4v12.3h-5.5V16.4c0-1.7-.3-2.9-.8-3.7s-1.4-1.2-2.7-1.2c-1.5 0-2.6.5-3.2 1.3-.7.9-1 2.4-1 4.4v10.5h-5.5V0h5.5zM70 10.6c.6-.9 1.3-1.5 2.2-2.1.9-.5 1.9-.9 3-1.1s2.2-.3 3.3-.3c1 0 2 .1 3.1.2 1 .1 2 .4 2.8.8.9.4 1.5 1 2.1 1.7.5.7.8 1.7.8 2.9v10.5c0 .9.1 1.8.2 2.6s.4 1.5.7 1.9h-5.6c-.2-.2-.3-.6-.4-.9s-.1-.7-.1-1c-.9.9-1.9 1.5-3.1 1.9s-2.4.5-3.6.5c-1 0-1.8-.1-2.7-.4-.8-.2-1.5-.6-2.2-1.1-.6-.5-1.1-1.1-1.5-1.9-.3-.8-.5-1.6-.5-2.7s.2-2.1.6-2.8.9-1.3 1.5-1.8c.6-.4 1.4-.8 2.2-1s1.6-.4 2.5-.5l2.4-.3c.8-.1 1.5-.2 2.1-.3.6-.2 1.1-.4 1.5-.7s.5-.7.5-1.3-.1-1.1-.3-1.4-.5-.6-.8-.8-.7-.3-1.1-.4-.9-.1-1.4-.1c-1.1 0-1.9.2-2.5.7s-1 1.3-1.1 2.3h-5.5c0-1.2.4-2.3.9-3.1zm10.9 7.8c-.3.1-.7.2-1.1.3s-.8.1-1.3.2c-.4.1-.9.1-1.3.2l-1.2.3c-.4.1-.8.3-1 .5-.3.2-.5.5-.7.8-.3.4-.3.8-.3 1.3s.1.9.3 1.2.4.6.7.8.7.3 1.1.4.8.1 1.3.1c1.1 0 1.9-.2 2.5-.5.6-.4 1-.8 1.3-1.3s.5-1 .5-1.5c.1-.5.1-.9.1-1.2v-2.1c-.3.2-.6.4-.9.5zM95.6 7.6v2.8h.1c.7-1.2 1.6-2 2.7-2.5s2.3-.8 3.4-.8c1.5 0 2.7.2 3.6.6 1 .4 1.7 1 2.2 1.7s.9 1.6 1.2 2.6c.2 1 .3 2.1.3 3.4v12.3h-5.5V16.4c0-1.7-.3-2.9-.8-3.7s-1.4-1.3-2.8-1.3c-1.5 0-2.6.6-3.3 1.5s-1 2.4-1 4.4v10.5h-5.5V7.6h5.4zM121 11.2c-.9 0-1.6.2-2.2.6s-1.1.9-1.5 1.6c-.4.6-.6 1.3-.8 2.1s-.2 1.5-.2 2.3c0 .7.1 1.5.2 2.2.2.8.4 1.4.8 2s.8 1.1 1.4 1.5 1.3.6 2.2.6c1.3 0 2.3-.4 3.1-1.1.7-.7 1.2-1.7 1.3-3h5.3c-.4 2.7-1.4 4.7-3.1 6.1s-3.9 2.1-6.6 2.1c-1.5 0-2.9-.3-4.1-.8-1.3-.5-2.3-1.2-3.2-2.1s-1.6-2-2.1-3.2c-.5-1.3-.7-2.6-.7-4.1 0-1.6.2-3 .7-4.3s1.1-2.5 2-3.5 2-1.7 3.2-2.3c1.3-.5 2.7-.8 4.3-.8 1.2 0 2.3.2 3.4.5s2.1.8 2.9 1.4c.9.6 1.6 1.4 2.1 2.4.5.9.8 2.1.9 3.4h-5.4c1-2.4 0-3.6-3-3.6zM29.4 1.9h11.2v2.7H29.4zM139 22.9c.8.8 2.1 1.2 3.6 1.2 1.1 0 2.1-.3 2.9-.8.8-.6 1.3-1.2 1.5-1.8h4.8c-.8 2.4-2 4.1-3.6 5.2-1.6 1-3.5 1.6-5.8 1.6-1.6 0-3-.3-4.3-.8s-2.3-1.2-3.2-2.2c-.9-.9-1.6-2-2-3.3-.5-1.3-.7-2.7-.7-4.3 0-1.5.2-2.9.7-4.2s1.2-2.4 2.1-3.4c.9-.9 2-1.7 3.2-2.2 1.3-.5 2.7-.8 4.2-.8 1.7 0 3.2.3 4.4 1 1.3.7 2.3 1.5 3.1 2.7.8 1.1 1.4 2.4 1.8 3.8s.5 2.9.4 4.5h-14.5c0 1.5 0 3 1 3.8zm7-10.5c-.7-.7-1.8-1.1-3.1-1.1-.9 0-1.6.2-2.2.5s-1.1.7-1.4 1.1-.6.9-.7 1.4-.2.9-.2 1.3h9c-1-1.5-2-2.5-2-3.2z"/></svg>