<!--<?xml version="1.0" encoding="UTF-8" standalone="no"?>-->
<!DOCTYPE svg  PUBLIC '-//W3C//DTD SVG 1.1//EN'  'http://www.w3.org/Graphics/SVG/1.1/DTD/svg11.dtd'>
<svg style="enable-background:new 0 0 455.731 455.731" xmlns="http://www.w3.org/2000/svg" xml:space="preserve" viewBox="0 0 455.731 455.731" version="1.1" y="0px" x="0px" xmlns:xlink="http://www.w3.org/1999/xlink">
<rect height="456" width="456" y="0" x="0" fill="#0071B9"/>
<rect height="22.1" width="88.8" y="131" x="281"/>
<path d="m405 255c0 3.98-0.159 7.82-0.477 11.5h-114c-1.06 25.2 17.3 40.2 38.2 40.2 14.8 0 27.8-7.86 35.3-21.2h37.4c-10.3 37.4-40.4 53-76 53-46.6 0-79.8-37.4-79.8-83.5s35.7-83.5 79.8-83.5 80 39 80 85zm-115-16h70.3c-2.79-20.7-17.5-34-35.1-34-17 0-32 13-35 34z"/>
<path d="m232 259c2.87 32-2.87 51.9-35.6 68-12.2 6.04-27.6 7.93-42 7.93h-103v-218h114s57.8 8.4 58.1 50.4c0.168 29-16.3 42.3-30 48.6 0 0 36 11 39 43zm-47 9c0-30.6-34.5-29.8-34.5-29.8h-51.4v59.5h52s34 1 34-30zm-8-89c0-25.6-28.9-25-28.9-25h-49.4v49.9h49s29 1 29-25z"/>
</svg>
