<!--<?xml version="1.0" encoding="UTF-8" standalone="no"?>-->
<svg height="58" width="75" xmlns="http://www.w3.org/2000/svg" class="behance-svg" viewBox="0 0 152.5 28.2">
<path d="m13.1 0c1.3 0 2.5 0.1 3.6 0.4 1.1 0.2 2 0.6 2.8 1.1s1.4 1.2 1.8 2.1 0.6 2 0.6 3.2c0 1.4-0.3 2.6-1 3.5-0.6 0.9-1.6 1.7-2.8 2.3 1.7 0.5 3 1.4 3.8 2.6s1.3 2.7 1.3 4.4c0 1.4-0.3 2.6-0.8 3.6s-1.3 1.9-2.2 2.5-2 1.1-3.2 1.4-2.4 0.5-3.6 0.5h-13.4v-27.6h13.1zm-0.8 11.2c1.1 0 2-0.3 2.7-0.8s1-1.4 1-2.5c0-0.6-0.1-1.2-0.3-1.6s-0.5-0.7-0.9-1c-0.4-0.2-0.8-0.4-1.3-0.5s-1-0.1-1.6-0.1h-5.8v6.5h6.2zm0.3 11.8c0.6 0 1.2-0.1 1.7-0.2s1-0.3 1.4-0.6 0.7-0.6 1-1.1c0.2-0.5 0.4-1.1 0.4-1.8 0-1.4-0.4-2.4-1.2-3.1-0.8-0.6-1.9-0.9-3.2-0.9h-6.6v7.7h6.5z"/>
<path d="m31.9 22.9c0.8 0.8 2 1.2 3.6 1.2 1.1 0 2.1-0.3 2.9-0.8 0.8-0.6 1.3-1.2 1.5-1.8h4.9c-0.8 2.4-2 4.1-3.6 5.2-1.6 1-3.5 1.6-5.8 1.6-1.6 0-3-0.3-4.3-0.8s-2.3-1.2-3.2-2.2c-0.9-0.9-1.6-2-2-3.3-0.5-1.3-0.7-2.7-0.7-4.3 0-1.5 0.2-2.9 0.7-4.2s1.2-2.4 2.1-3.4c0.9-0.9 2-1.7 3.2-2.2 1.3-0.5 2.6-0.8 4.2-0.8 1.7 0 3.2 0.3 4.5 1s2.3 1.5 3.1 2.7c0.8 1.1 1.4 2.4 1.8 3.8 0.2 1.4 0.3 2.8 0.2 4.4h-14.5c0 1.6 0.6 3.1 1.4 3.9zm6.3-10.5c-0.7-0.7-1.8-1.1-3.1-1.1-0.9 0-1.6 0.2-2.2 0.5s-1 0.7-1.4 1.1-0.6 0.9-0.7 1.4-0.2 0.9-0.2 1.3h9c-0.2-1.5-0.7-2.5-1.4-3.2z"/>
<path d="m52.8 0v10.4h0.1c0.7-1.2 1.6-2 2.7-2.5s2.1-0.8 3.2-0.8c1.5 0 2.7 0.2 3.6 0.6s1.7 1 2.2 1.7 0.9 1.6 1.1 2.6 0.3 2.1 0.3 3.4v12.3h-5.5v-11.3c0-1.7-0.3-2.9-0.8-3.7s-1.4-1.2-2.7-1.2c-1.5 0-2.6 0.5-3.2 1.3-0.7 0.9-1 2.4-1 4.4v10.5h-5.5v-27.7h5.5z"/>
<path d="m70 10.6c0.6-0.9 1.3-1.5 2.2-2.1 0.9-0.5 1.9-0.9 3-1.1s2.2-0.3 3.3-0.3c1 0 2 0.1 3.1 0.2 1 0.1 2 0.4 2.8 0.8 0.9 0.4 1.5 1 2.1 1.7 0.5 0.7 0.8 1.7 0.8 2.9v10.5c0 0.9 0.1 1.8 0.2 2.6s0.4 1.5 0.7 1.9h-5.6c-0.2-0.2-0.3-0.6-0.4-0.9s-0.1-0.7-0.1-1c-0.9 0.9-1.9 1.5-3.1 1.9s-2.4 0.5-3.6 0.5c-1 0-1.8-0.1-2.7-0.4-0.8-0.2-1.5-0.6-2.2-1.1-0.6-0.5-1.1-1.1-1.5-1.9-0.3-0.8-0.5-1.6-0.5-2.7s0.2-2.1 0.6-2.8 0.9-1.3 1.5-1.8c0.6-0.4 1.4-0.8 2.2-1s1.6-0.4 2.5-0.5l2.4-0.3c0.8-0.1 1.5-0.2 2.1-0.3 0.6-0.2 1.1-0.4 1.5-0.7s0.5-0.7 0.5-1.3-0.1-1.1-0.3-1.4-0.5-0.6-0.8-0.8-0.7-0.3-1.1-0.4-0.9-0.1-1.4-0.1c-1.1 0-1.9 0.2-2.5 0.7s-1 1.3-1.1 2.3h-5.5c0-1.2 0.4-2.3 0.9-3.1zm10.9 7.8c-0.3 0.1-0.7 0.2-1.1 0.3s-0.8 0.1-1.3 0.2c-0.4 0.1-0.9 0.1-1.3 0.2l-1.2 0.3c-0.4 0.1-0.8 0.3-1 0.5-0.3 0.2-0.5 0.5-0.7 0.8-0.3 0.4-0.3 0.8-0.3 1.3s0.1 0.9 0.3 1.2 0.4 0.6 0.7 0.8 0.7 0.3 1.1 0.4 0.8 0.1 1.3 0.1c1.1 0 1.9-0.2 2.5-0.5 0.6-0.4 1-0.8 1.3-1.3s0.5-1 0.5-1.5c0.1-0.5 0.1-0.9 0.1-1.2v-2.1c-0.3 0.2-0.6 0.4-0.9 0.5z"/>
<path d="m95.6 7.6v2.8h0.1c0.7-1.2 1.6-2 2.7-2.5s2.3-0.8 3.4-0.8c1.5 0 2.7 0.2 3.6 0.6 1 0.4 1.7 1 2.2 1.7s0.9 1.6 1.2 2.6c0.2 1 0.3 2.1 0.3 3.4v12.3h-5.5v-11.3c0-1.7-0.3-2.9-0.8-3.7s-1.4-1.3-2.8-1.3c-1.5 0-2.6 0.6-3.3 1.5s-1 2.4-1 4.4v10.5h-5.5v-20.2h5.4z"/>
<path d="m121 11.2c-0.9 0-1.6 0.2-2.2 0.6s-1.1 0.9-1.5 1.6c-0.4 0.6-0.6 1.3-0.8 2.1s-0.2 1.5-0.2 2.3c0 0.7 0.1 1.5 0.2 2.2 0.2 0.8 0.4 1.4 0.8 2s0.8 1.1 1.4 1.5 1.3 0.6 2.2 0.6c1.3 0 2.3-0.4 3.1-1.1 0.7-0.7 1.2-1.7 1.3-3h5.3c-0.4 2.7-1.4 4.7-3.1 6.1s-3.9 2.1-6.6 2.1c-1.5 0-2.9-0.3-4.1-0.8-1.3-0.5-2.3-1.2-3.2-2.1s-1.6-2-2.1-3.2c-0.5-1.3-0.7-2.6-0.7-4.1 0-1.6 0.2-3 0.7-4.3s1.1-2.5 2-3.5 2-1.7 3.2-2.3c1.3-0.5 2.7-0.8 4.3-0.8 1.2 0 2.3 0.2 3.4 0.5s2.1 0.8 2.9 1.4c0.9 0.6 1.6 1.4 2.1 2.4 0.5 0.9 0.8 2.1 0.9 3.4h-5.4c1-2.4 0-3.6-3-3.6z"/>
<rect y="1.9" x="29.4" height="2.7" width="11.2"/>
<path d="m139 22.9c0.8 0.8 2.1 1.2 3.6 1.2 1.1 0 2.1-0.3 2.9-0.8 0.8-0.6 1.3-1.2 1.5-1.8h4.8c-0.8 2.4-2 4.1-3.6 5.2-1.6 1-3.5 1.6-5.8 1.6-1.6 0-3-0.3-4.3-0.8s-2.3-1.2-3.2-2.2c-0.9-0.9-1.6-2-2-3.3-0.5-1.3-0.7-2.7-0.7-4.3 0-1.5 0.2-2.9 0.7-4.2s1.2-2.4 2.1-3.4c0.9-0.9 2-1.7 3.2-2.2 1.3-0.5 2.7-0.8 4.2-0.8 1.7 0 3.2 0.3 4.4 1 1.3 0.7 2.3 1.5 3.1 2.7 0.8 1.1 1.4 2.4 1.8 3.8s0.5 2.9 0.4 4.5h-14.5c0 1.5 0 3 1 3.8zm7-10.5c-0.7-0.7-1.8-1.1-3.1-1.1-0.9 0-1.6 0.2-2.2 0.5s-1.1 0.7-1.4 1.1-0.6 0.9-0.7 1.4-0.2 0.9-0.2 1.3h9c-1-1.5-2-2.5-2-3.2z"/>
</svg>
