<svg xmlns="http://www.w3.org/2000/svg" viewBox="0 0 455.731 455.731"><path d="M0 0v456h456V0H0zm51.4 116.93h114s57.8 8.4 58.1 50.4c.168 29-16.3 42.3-30 48.6 0 0 36 11 39 43l-.5.07c2.87 32-2.87 51.9-35.6 68-12.2 6.04-27.6 7.93-42 7.93h-103v-218zM281 131h88.8v22.1H281V131zM98.7 154v49.9h49s29 1 29-25l.3.1c0-25.6-28.9-25-28.9-25H98.7zm226.724 17.5c44.1 0 80 39 80 85L405 255c0 3.98-.16 7.82-.477 11.5h-114c-1.06 25.2 17.3 40.2 38.2 40.2 14.8 0 27.8-7.86 35.3-21.2h37.4c-10.3 37.4-40.4 53-76 53-46.6 0-79.8-37.4-79.8-83.5s35.7-83.5 79.8-83.5zM325.2 205c-17 0-32 13-35 34h70.1c-2.79-20.7-17.5-34-35.1-34zM99.1 238.2v59.5h52s34 1 34-30l-.1.3c0-30.6-34.5-29.8-34.5-29.8H99.1z" fill="#0071b9"/></svg>