<svg xmlns="http://www.w3.org/2000/svg" viewBox="0 0 296.429 296.429"><path d="M277 48.8V15.5l11.4 8.57 5.71-7.62-21-16.5-21.9 16.4 5.71 7.62 11.4-8.57v33.4c0 13.1-10.7 23.8-23.8 23.8h-19c-15.1 0-27.8 9.52-31.9 23.8h-6.82l-.176 9.52h5.59v14.8c-2.34-.333-4.71-.557-7.14-.557-11.1 0-21.7 3.7-30.5 10.5-6.25-6.65-15-10.5-24.3-10.5-3.26 0-6.46.52-9.52 1.44v-30c0-15.8-12.8-28.6-28.6-28.6h-4.76v-9.52h-9.2v9.52h-14.3c-15.8 0-28.6 12.8-28.6 28.6v9.52c0 5.25-4.27 9.52-9.52 9.52h-9.52l8.57-11.4-7.62-5.71-16.5 21.1 16.4 21.9 7.62-5.71-8.57-11.4h9.6c10.5 0 19-8.54 19-19v-9.52c0-10.5 8.54-19 19-19h28.6c10.5 0 19 8.54 19 19v34.6c-2.07 1.45-4 3.11-5.71 5.01-3.59-1.02-7.26-1.54-11-1.54-20.4 0-37.4 15.1-40.1 35-16.9 6-28.9 22-28.9 40 0 8.43 2.65 16.7 7.52 23.5-1.83 4.68-2.76 9.58-2.76 14.6 0 22.3 18.2 40.5 40.5 40.5 1.8 0 3.57-.162 5.31-.39.33-.043.657-.1.986-.152 1.76-.275 3.5-.642 5.18-1.14 6.55 4.23 14 6.45 21.9 6.45 8.73 0 17-2.75 23.9-7.84 7.5 10.8 19.8 17.4 33.2 17.4 12.5 0 24-5.63 31.6-15.3 6.26 3.78 13.3 5.75 20.7 5.75 22.3 0 40.5-18.2 40.5-40.5 0-4.82-.852-9.52-2.53-14 7.7-7.59 12.1-17.9 12.1-28.8 0-2.43-.238-4.81-.657-7.14h.657v-9.52h-3.64c-4.77-10.5-13.9-18.7-25.3-22.1-2.1-19.5-15.2-35.4-33-41.7v-17.2c0-13.1 10.7-23.8 23.8-23.8h19c18-1.1 33-16 33-34.4zm-52 120l.133 3.76 3.69.738c8.57 1.72 15.7 6.98 20.1 14v9.16h3.81c.562 2.31.952 4.69.952 7.14 0 7.56-2.77 14.7-7.66 20.3-6.85-9.43-17.7-15.2-30.1-16l-.624 8.91c15.8 1.04 28.3 12.5 28.8 30.7-.57 16.6-14.2 29.9-30.9 29.9-6.93 0-13.5-2.27-19-6.57l-1.9-1.49c-5.87-5.34-9.47-12.8-10-20.8l-9.5.633c.672 10.1 5.03 19.3 12.1 26.2-5.85 7.29-14.6 11.5-24.1 11.5-11.8 0-22.4-6.61-27.7-17.3l-2.93-5.92-4.69 4.66c-5.84 5.79-13.6 8.99-21.8 8.99-3.77 0-7.41-.75-10.9-2.07 10.9-7.27 18-19.6 18-33.6 0-1.01-.132-2-.204-3 7.58-1.31 14.7-4.74 20.4-10l-6.44-7.02c-4.44 4.07-9.9 6.7-15.8 7.68-3.19-9.94-10.1-18.4-19.6-23.5l-4.44 8.43c10.2 5.39 16.6 15.9 16.6 27.4 0 13.4-8.53 24.7-20.4 29.1-1.68.606-3.38 1.06-5.09 1.38-.114.02-.23.034-.343.053-1.7.29-3.4.457-5.11.457-17.1 0-31-13.9-31-31 0-4.58 1.01-9.03 3.01-13.2l1.3-2.74-1.94-2.34c-4.6-5.54-7.14-12.6-7.14-19.8 0-14.7 10.4-27.5 24.8-30.3l3.65-.73.17-3.71c.487-10.4 6.04-19.4 14.2-24.6v9.41h9.52v-13.4c2.3-.542 4.68-.86 7.14-.86 3.68 0 7.35.68 10.9 2.02l3.4 1.29 2.13-2.94c.072-.1.158-.187.234-.287v23.7h9.52v-31.3c2.98-1.31 6.2-2.06 9.52-2.06 6.59 0 12.8 2.75 17.2 7.45-7.98 9.08-13.7 20.8-13.7 33 0 27.6 25 50 48.8 50v-9.52c-19 0-39.3-18.2-39.3-40.5 0-9.94 4.29-19.5 10.8-26.9l2.73-2.32c7.6-7.26 17.6-11.3 28-11.3 2.44 0 4.97.243 7.29.657v18.4c0 13.1-10.7 23.8-23.8 23.8h-4.76v9.52h4.76c18.4 0 33.3-15 33.3-33.3v-15.4c16 4 25 18 26 34z"/><path d="M220 187h14.3v9.52H220zM244 96.4h14.3v9.52H244zM170 101l4.8-8.22c-3.44-2.01-6.35-4.87-8.43-8.27l-8.13 4.96c2 5.1 6 9.1 11 11.5zM154 72.6c0 .495.01.99.034 1.49l9.51-1.06-.024-14.7H154v14.3zM154 29.8h9.52v14.3H154zM274 184l4.59 8.34c4.87-2.68 9.03-6.56 12.1-11.2l-8.01-5.16c-2 3-5 6-9 8zM287 163c0 .562-.02 1.12-.062 1.68l9.5.662c.052-.776.08-1.56.08-2.34v-15H287v14zM215 96.4h14.3v9.52H215zM295 121l-9.19 2.48c.543 2.01.82 4.1.82 6.19v4.76h9.52v-4.76c-1-2-1-5-2-8zM287 107c-3.86-4.03-8.69-7.06-14-8.75l-2.9 9.07c3.77 1.21 7.23 3.38 9.99 6.26l7-6zM154 15.5h9l12 8.5 5-7.6L158 0l-22 16.4 6 7.6M77.4 25h9.52v14.3H77.4zM77.4 111h9.52v14.3H77.4zM77.4 82.1h9.52v14.3H77.4zM77.4 168h9.52v14.3H77.4zM82.1 11.9L98.3 24l5.7-7.6L82.1 0 60.2 16.4 66 24"/></svg>