<!--<?xml version="1.0" encoding="UTF-8" standalone="no"?>-->
<svg style="enable-background:new 0 0 296.429 296.429" xmlns="http://www.w3.org/2000/svg" xml:space="preserve" viewBox="0 0 296.429 296.429" version="1.1" y="0px" x="0px" xmlns:xlink="http://www.w3.org/1999/xlink">
<path d="m277 48.8v-33.3l11.4 8.57 5.71-7.62-21-16.5-21.9 16.4 5.71 7.62 11.4-8.57v33.4c0 13.1-10.7 23.8-23.8 23.8h-19c-15.1 0-27.8 9.52-31.9 23.8h-6.82l-0.176 9.52h5.59v14.8c-2.34-0.333-4.71-0.557-7.14-0.557-11.1 0-21.7 3.7-30.5 10.5-6.25-6.65-15-10.5-24.3-10.5-3.26 0-6.46 0.519-9.52 1.44v-30c0-15.8-12.8-28.6-28.6-28.6h-4.76v-9.52h-9.2v9.52h-14.3c-15.8 0-28.6 12.8-28.6 28.6v9.52c0 5.25-4.27 9.52-9.52 9.52h-9.52l8.57-11.4-7.62-5.71-16.5 21.1 16.4 21.9 7.62-5.71-8.57-11.4h9.6c10.5 0 19-8.54 19-19v-9.52c0-10.5 8.54-19 19-19h28.6c10.5 0 19 8.54 19 19v34.6c-2.07 1.45-4 3.11-5.71 5.01-3.59-1.02-7.26-1.54-11-1.54-20.4 0-37.4 15.1-40.1 35-16.9 6-28.9 22-28.9 40 0 8.43 2.65 16.7 7.52 23.5-1.83 4.68-2.76 9.58-2.76 14.6 0 22.3 18.2 40.5 40.5 40.5 1.8 0 3.57-0.162 5.31-0.39 0.329-0.043 0.657-0.1 0.986-0.152 1.76-0.276 3.5-0.643 5.18-1.14 6.55 4.23 14 6.45 21.9 6.45 8.73 0 17-2.75 23.9-7.84 7.5 10.8 19.8 17.4 33.2 17.4 12.5 0 24-5.63 31.6-15.3 6.26 3.78 13.3 5.75 20.7 5.75 22.3 0 40.5-18.2 40.5-40.5 0-4.82-0.852-9.52-2.53-14 7.7-7.59 12.1-17.9 12.1-28.8 0-2.43-0.238-4.81-0.657-7.14h0.657v-9.52h-3.64c-4.77-10.5-13.9-18.7-25.3-22.1-2.1-19.5-15.2-35.4-33-41.7v-17.2c0-13.1 10.7-23.8 23.8-23.8h19c18-1.1 33-16 33-34.4zm-52 120l0.133 3.76 3.69 0.738c8.57 1.72 15.7 6.98 20.1 14v9.16h3.81c0.562 2.31 0.952 4.69 0.952 7.14 0 7.56-2.77 14.7-7.66 20.3-6.85-9.43-17.7-15.2-30.1-16l-0.624 8.91c15.8 1.04 28.3 12.5 28.8 30.7-0.571 16.6-14.2 29.9-30.9 29.9-6.93 0-13.5-2.27-19-6.57l-1.9-1.49c-5.87-5.34-9.47-12.8-10-20.8l-9.5 0.633c0.671 10.1 5.03 19.3 12.1 26.2-5.85 7.29-14.6 11.5-24.1 11.5-11.8 0-22.4-6.61-27.7-17.3l-2.93-5.92-4.69 4.66c-5.84 5.79-13.6 8.99-21.8 8.99-3.77 0-7.41-0.752-10.9-2.07 10.9-7.27 18-19.6 18-33.6 0-1.01-0.133-2-0.205-3 7.58-1.31 14.7-4.74 20.4-10l-6.44-7.02c-4.44 4.07-9.9 6.7-15.8 7.68-3.19-9.94-10.1-18.4-19.6-23.5l-4.44 8.43c10.2 5.39 16.6 15.9 16.6 27.4 0 13.4-8.53 24.7-20.4 29.1-1.68 0.605-3.38 1.06-5.09 1.38-0.114 0.019-0.229 0.033-0.343 0.052-1.7 0.29-3.4 0.457-5.11 0.457-17.1 0-31-13.9-31-31 0-4.58 1.01-9.03 3.01-13.2l1.3-2.74-1.94-2.34c-4.6-5.54-7.14-12.6-7.14-19.8 0-14.7 10.4-27.5 24.8-30.3l3.65-0.729 0.171-3.71c0.486-10.4 6.04-19.4 14.2-24.6v9.41h9.52v-13.4c2.3-0.543 4.68-0.862 7.14-0.862 3.68 0 7.35 0.681 10.9 2.02l3.4 1.29 2.13-2.94c0.071-0.1 0.157-0.186 0.233-0.286v23.7h9.52v-31.3c2.98-1.31 6.2-2.06 9.52-2.06 6.59 0 12.8 2.75 17.2 7.45-7.98 9.08-13.7 20.8-13.7 33 0 27.6 25 50 48.8 50v-9.52c-19 0-39.3-18.2-39.3-40.5 0-9.94 4.29-19.5 10.8-26.9l2.73-2.32c7.6-7.26 17.6-11.3 28-11.3 2.44 0 4.97 0.243 7.29 0.657v18.4c0 13.1-10.7 23.8-23.8 23.8h-4.76v9.52h4.76c18.4 0 33.3-15 33.3-33.3v-15.4c16 4 25 18 26 34z"/>
<rect y="187" x="220" height="9.52" width="14.3"/>
<rect y="96.4" x="244" height="9.52" width="14.3"/>
<path d="m170 101l4.8-8.22c-3.44-2.01-6.35-4.87-8.43-8.27l-8.13 4.96c2 5.1 6 9.1 11 11.5z"/>
<path d="m154 72.6c0.001 0.495 0.011 0.99 0.034 1.49l9.51-1.06-0.024-14.7h-9.52v14.3z"/>
<rect y="29.8" x="154" height="14.3" width="9.52"/>
<path d="m274 184l4.59 8.34c4.87-2.68 9.03-6.56 12.1-11.2l-8.01-5.16c-2 3-5 6-9 8z"/>
<path d="m287 163c0 0.562-0.019 1.12-0.062 1.68l9.5 0.662c0.052-0.776 0.081-1.56 0.081-2.34v-15h-9.52v14z"/>
<rect y="96.4" x="215" height="9.52" width="14.3"/>
<path d="m295 121l-9.19 2.48c0.543 2.01 0.819 4.1 0.819 6.19v4.76h9.52v-4.76c-1-2-1-5-2-8z"/>
<path d="m287 107c-3.86-4.03-8.69-7.06-14-8.75l-2.9 9.07c3.77 1.21 7.23 3.38 9.99 6.26l7-6z"/>
<polygon points="154 15.5 163 15.5 175 24 180 16.4 158 0 136 16.4 142 24"/>
<rect y="25" x="77.4" height="14.3" width="9.52"/>
<rect y="111" x="77.4" height="14.3" width="9.52"/>
<rect y="82.1" x="77.4" height="14.3" width="9.52"/>
<rect y="168" x="77.4" height="14.3" width="9.52"/>
<polygon points="82.1 11.9 98.3 24 104 16.4 82.1 0 60.2 16.4 66 24"/>
</svg>
