<svg xmlns="http://www.w3.org/2000/svg" viewBox="0 0 512 512"><path d="M0 346.68v-310c0-5.504 4.704-10 10.448-10h491.104c5.744 0 10.448 4.496 10.448 10v310H0z"/><g fill="#999"><path d="M512 346.68v42.664c0 5.88-4.704 10.672-10.448 10.672H10.448C4.704 400.016 0 395.224 0 389.352v-42.664l512-.008zM181.336 474.68h149.328L320 400.016H192"/></g><g fill="#636363"><path d="M320 400.016H192l-6.648 46.544 137.136-29.144M144 474.656h224v10.664H144z"/></g><g fill="#FFF"><path d="M118.68 243.784h274.64v10.664H118.68zM62.448 277.096h387.12v10.664H62.448z"/></g><circle cx="111.088" cy="139.512" r="53.464" fill="#E50914"/><path fill="#FFF" d="M107.096 163.312L87.064 143.28l7.544-7.536 11.616 11.608 22.704-28.288 8.32 6.664"/><circle cx="253.92" cy="139.512" r="53.464" fill="#E50914"/><path fill="#FFF" d="M249.928 163.312l-20.032-20.032 7.544-7.536 11.616 11.608 22.72-28.288 8.312 6.664"/><circle cx="400.88" cy="139.512" r="53.464" fill="#E50914"/><path fill="#FFF" d="M396.92 163.312l-20.024-20.032 7.544-7.536 11.6 11.608 22.72-28.288 8.312 6.664"/></svg>