<svg xmlns="http://www.w3.org/2000/svg" viewBox="0 0 512 512"><path d="M0 109.852h512v358.496H0z"/><path d="M0 119.372V55.636c0-8.8 7.2-16 16-16h479.96c8.8 0 16 7.2 16 16v63.728H0v.008z" fill="#D6D6D6"/><path fill="#FFF" d="M471.624 101.508H171.536l28.704-44h271.384"/><circle cx="53.904" cy="78.908" r="13.608" fill="#E50914"/><circle cx="89.976" cy="78.908" r="13.608" fill="#939393"/><circle cx="126.056" cy="78.908" r="13.608" fill="#C9C9C9"/><path d="M215.624 71.244l1.912 8.312c.416 1.952.832 3.944 1.168 5.936h.08c.376-1.992.976-4.024 1.504-5.896l2.368-8.352h3.76l2.296 8.128c.56 2.144 1.048 4.136 1.464 6.128h.08c.296-1.992.712-3.984 1.2-6.128l2.032-8.128h4.544l-5.752 18.312h-4.288l-2.176-7.448c-.56-1.912-.976-3.648-1.392-5.864h-.08c-.376 2.256-.856 4.064-1.392 5.864l-2.328 7.448h-4.328l-5.416-18.312h4.744zM244.392 71.244l1.912 8.312c.416 1.952.832 3.944 1.168 5.936h.08c.376-1.992.976-4.024 1.504-5.896l2.368-8.352h3.76l2.296 8.128c.56 2.144 1.048 4.136 1.464 6.128h.08c.296-1.992.712-3.984 1.2-6.128l2.032-8.128h4.544l-5.752 18.312h-4.288l-2.176-7.448c-.56-1.912-.976-3.648-1.392-5.864h-.08c-.376 2.256-.856 4.064-1.392 5.864l-2.328 7.448h-4.328l-5.416-18.312h4.744zM273.16 71.244l1.912 8.312c.416 1.952.832 3.944 1.168 5.936h.08c.376-1.992.976-4.024 1.504-5.896l2.368-8.352h3.76l2.296 8.128c.56 2.144 1.048 4.136 1.464 6.128h.08c.296-1.992.712-3.984 1.2-6.128l2.032-8.128h4.544l-5.752 18.312h-4.296l-2.176-7.448c-.56-1.912-.976-3.648-1.392-5.864h-.08c-.376 2.256-.856 4.064-1.392 5.864l-2.328 7.448h-4.328l-5.416-18.312h4.752zM296.312 87.004c0-1.736 1.2-2.968 2.856-2.968 1.696 0 2.856 1.2 2.856 2.968 0 1.688-1.128 2.968-2.856 2.968-1.68 0-2.856-1.28-2.856-2.968z"/><path fill="#E50914" d="M342.688 464.212H169.312l24-18.248h125.376"/><path d="M0 459.596h512v12.768H0z"/><path fill="#E50914" d="M501.744 459.588H0v12.768h512v-12.768"/><path d="M440.352 92.508l-2.856-2.8 9.888-10.16-10.48-10.224 2.792-2.856 13.344 13"/><path d="M421.616 77.508h26.416v4h-26.416z"/><g fill="#FFF"><path d="M76.768 309.948c0-8.344 5.808-14.328 13.792-14.328 8.168 0 13.784 5.808 13.784 14.328 0 8.168-5.44 14.328-13.784 14.328-8.168 0-13.792-6.16-13.792-14.328zM187.232 319.564c-4.72 2.168-13.968 4.528-25.032 4.528-27.576 0-45.528-17.592-45.528-44.984 0-26.488 18.144-47.168 49.16-47.168 8.168 0 16.504 1.816 21.584 4.168l-3.992 16.688c-3.624-1.632-8.888-3.448-16.864-3.448-17.056 0-27.208 12.512-27.032 28.664 0 18.144 11.792 28.48 27.032 28.48 7.8 0 13.24-1.632 17.592-3.448l3.08 16.52zM286.08 277.3c0 32.472-22.856 46.976-45.352 46.976-25.032 0-44.256-17.224-44.256-45.528 0-29.016 19.048-46.8 45.712-46.8 26.304 0 43.896 18.504 43.896 45.352zm-66.576.904c0 17.048 8.344 29.928 21.952 29.928 12.696 0 21.584-12.512 21.584-30.296 0-13.784-6.168-29.56-21.408-29.56-15.784 0-22.128 15.232-22.128 29.928zM304.384 260.244c0-10.16-.176-18.68-.72-26.304h19.224l.904 13.064h.544c4.352-6.888 12.328-15.056 27.2-15.056 11.608 0 20.68 6.528 24.496 16.328h.36c3.088-4.896 6.712-8.528 10.88-11.072 4.896-3.448 10.52-5.256 17.784-5.256 14.696 0 29.56 9.976 29.56 38.272v52.064h-21.768v-48.8c0-14.696-5.08-23.4-15.784-23.4-7.616 0-13.24 5.44-15.6 11.792-.536 2.176-1.088 4.896-1.088 7.44v52.968h-21.768v-51.16c0-12.336-4.896-21.04-15.24-21.04-8.344 0-13.96 6.528-15.96 12.696-.904 2.176-1.264 4.72-1.264 7.256v52.24h-21.776v-62.032h.016z"/></g></svg>