<svg xmlns="http://www.w3.org/2000/svg" viewBox="0 0 512 512"><path d="M307.64 168.792l36.432-37.152v89.648h33.992V131.64l36.432 37.152 24.256-23.672-77.68-79.2-77.688 79.2"/><path d="M401.392 270.368H432c44 0 80 35.936 80 79.872v15.968c0 43.92-36 79.872-80 79.872H80c-44 0-80-35.936-80-79.872V350.24c0-40.96 31.424-74.592 71.328-78.992-.784-5.52-1.328-11.12-1.328-16.848 0-65.616 53.28-118.8 118.992-118.8 50.464 0 93.488 31.424 110.8 75.68 0 0 26.672-12.24 60.016-.448 41.456 14.672 41.584 59.536 41.584 59.536z" fill="#D6D6D6"/><path fill="#E50914" d="M251.12 283.584l-36.432 37.144V231.08h-33.984v89.648l-36.432-37.144-24.264 23.672 77.68 79.2 77.696-79.2"/></svg>