<svg xmlns="http://www.w3.org/2000/svg" viewBox="0 0 512 512"><path fill="#FFF" d="M4 109.852h504v358.496H4z"/><g fill="#D6D6D6"><path d="M369.968 431.172H142.032l-37.368 28.416h302.672M113.32 431.172H47.632l-37.376 28.416h65.816M464.368 431.172H398.68l37.248 28.416h65.816M369.968 147.788H142.032l-37.368-28.416h302.672M113.32 147.788H47.632l-37.376-28.416h65.816M464.368 147.788H398.68l37.248-28.416h65.816"/><path d="M504 113.852v350.496H8V113.852h496m8-8H0v366.496h512V105.852z"/></g><path d="M0 119.372V55.636c0-8.8 7.2-16 16-16h479.96c8.8 0 16 7.2 16 16v63.728H0v.008z"/><path fill="#FFF" d="M471.624 101.508H171.536l28.704-44h271.384"/><circle cx="53.904" cy="78.908" r="13.608" fill="#E50914"/><circle cx="89.976" cy="78.908" r="13.608" fill="#939393"/><circle cx="126.056" cy="78.908" r="13.608" fill="#D6D6D6"/><path d="M215.616 71.244l1.912 8.312c.416 1.952.832 3.944 1.168 5.936h.08c.376-1.992.976-4.024 1.504-5.896l2.368-8.352h3.76l2.296 8.128c.56 2.144 1.048 4.136 1.464 6.128h.08c.296-1.992.712-3.984 1.2-6.128l2.032-8.128h4.544l-5.752 18.312h-4.288l-2.176-7.448c-.56-1.912-.976-3.648-1.392-5.864h-.08c-.376 2.256-.856 4.064-1.392 5.864l-2.328 7.448h-4.328l-5.408-18.312h4.736zM244.384 71.244l1.912 8.312c.416 1.952.832 3.944 1.168 5.936h.08c.376-1.992.976-4.024 1.504-5.896l2.368-8.352h3.76l2.296 8.128c.56 2.144 1.048 4.136 1.464 6.128h.08c.296-1.992.712-3.984 1.2-6.128l2.032-8.128h4.544l-5.752 18.312h-4.288l-2.176-7.448c-.56-1.912-.976-3.648-1.392-5.864h-.08c-.376 2.256-.856 4.064-1.392 5.864l-2.328 7.448h-4.328l-5.416-18.312h4.744zM273.152 71.244l1.912 8.312c.416 1.952.832 3.944 1.168 5.936h.08c.376-1.992.976-4.024 1.504-5.896l2.368-8.352h3.76l2.296 8.128c.56 2.144 1.048 4.136 1.464 6.128h.08c.296-1.992.712-3.984 1.2-6.128l2.032-8.128h4.544l-5.752 18.312h-4.288l-2.176-7.448c-.56-1.912-.976-3.648-1.392-5.864h-.08c-.376 2.256-.856 4.064-1.392 5.864l-2.328 7.448h-4.328l-5.416-18.312h4.744zM296.304 86.996c0-1.736 1.2-2.968 2.856-2.968 1.696 0 2.856 1.2 2.856 2.968 0 1.688-1.128 2.968-2.856 2.968-1.68 0-2.856-1.28-2.856-2.968zM342.688 464.212H169.312l24-18.248h125.376"/><path d="M0 459.596h512v12.768H0z"/><path d="M501.744 459.588H0v12.768h512v-12.768M440.352 92.508l-2.856-2.8 9.888-10.16-10.48-10.224 2.792-2.856 13.344 13"/><path d="M421.616 77.508h26.416v4h-26.416z"/><g fill="#E50914"><path d="M141.392 312.428c-5.24 1.944-15.48 4.624-26.44 4.624-13.888 0-24.368-3.528-32.168-10.96-7.304-6.944-11.568-17.792-11.456-30.216 0-25.944 18.52-42.632 45.688-42.632 10.112 0 18.032 2.072 21.808 3.896l-3.288 12.056c-4.504-1.944-9.984-3.528-18.64-3.528-17.536 0-29.84 10.36-29.84 29.488 0 18.64 11.456 29.728 28.504 29.728 5.36 0 9.384-.736 11.328-1.712v-20.464h-14.496v-11.824h29v41.544zM213.248 285.988c0 21.808-15.352 31.552-30.456 31.552-16.816 0-29.728-11.576-29.728-30.584 0-19.488 12.792-31.432 30.696-31.432 17.664.008 29.488 12.432 29.488 30.464zm-44.712.616c0 11.456 5.608 20.104 14.744 20.104 8.528 0 14.496-8.408 14.496-20.344 0-9.264-4.152-19.856-14.376-19.856-10.6-.008-14.864 10.224-14.864 20.096zM281.944 285.988c0 21.808-15.352 31.552-30.456 31.552-16.816 0-29.728-11.576-29.728-30.584 0-19.488 12.792-31.432 30.696-31.432 17.672.008 29.488 12.432 29.488 30.464zm-44.712.616c0 11.456 5.6 20.104 14.744 20.104 8.528 0 14.496-8.408 14.496-20.344 0-9.264-4.144-19.856-14.376-19.856-10.6-.008-14.864 10.224-14.864 20.096zM348.44 256.876c-.24 4.016-.488 8.888-.488 17.056v33.624c0 12.424-2.552 21.32-8.776 26.92-6.208 5.488-14.744 7.184-22.896 7.184-7.552 0-15.592-1.584-20.712-4.752l3.288-11.328c3.776 2.184 10.112 4.504 17.296 4.504 9.752 0 17.056-5.12 17.056-17.912v-5.12h-.24c-3.416 5.24-9.504 8.776-17.296 8.776-14.744 0-25.216-12.176-25.216-28.992 0-19.496 12.672-31.312 26.92-31.312 9.016 0 14.376 4.392 17.176 9.256h.24l.608-7.912 13.04.008zm-15.472 23.752c0-1.344-.128-2.808-.488-4.024-1.584-5.488-5.848-9.624-12.184-9.624-8.408 0-14.616 7.312-14.616 19.376 0 10.112 5.12 18.272 14.496 18.272 5.6 0 10.48-3.656 12.176-9.016.368-1.584.608-3.656.608-5.36l.008-9.624zM364.024 229.7h15.112v86.496h-15.112V229.7zM405.936 290.74c.368 10.72 8.776 15.352 18.272 15.352 6.944 0 11.936-.976 16.448-2.68l2.192 10.352c-5.12 2.072-12.184 3.656-20.712 3.656-19.248 0-30.576-11.824-30.576-29.968 0-16.448 9.984-31.92 28.992-31.92 19.248 0 25.584 15.832 25.584 28.872 0 2.808-.24 4.992-.496 6.336h-39.704zM432 280.268c.128-5.488-2.312-14.496-12.304-14.496-9.256 0-13.16 8.408-13.768 14.496H432z"/></g></svg>