<svg xmlns="http://www.w3.org/2000/svg" viewBox="0 0 512 512"><path d="M0 304V28.448c0-4.896 4.184-8.888 9.288-8.888h436.536c5.104 0 9.288 4 9.288 8.888V304H0z"/><g fill="#999"><path d="M455.112 304v37.92c0 5.216-4.184 9.488-9.288 9.488H9.288c-5.104 0-9.288-4.264-9.288-9.48v-37.92L455.112 304zM161.184 417.776H293.92l-9.472-66.368H170.664"/></g><g fill="#636363"><path d="M284.448 351.408H170.664l-5.904 41.368 121.896-25.896M128 417.76h199.112v9.48H128z"/></g><path fill="#999" d="M55.512 59.032h344.08v88.8H55.512z"/><path fill="#FFF" d="M55.512 175.728h344.08v88.8H55.512z"/><path d="M503.216 492.44H356.8c-4.832 0-8.784-3.952-8.784-8.784V208.4c0-4.832 3.952-8.784 8.784-8.784h146.416c4.832 0 8.784 3.952 8.784 8.784v275.264c0 4.824-3.952 8.776-8.784 8.776z"/><path d="M356.8 223.04h146.416v234.24H356.8z"/><g fill="#999"><path d="M447.424 214.256h-35.136c-1.608 0-2.928-1.32-2.928-2.928 0-1.608 1.32-2.928 2.928-2.928h35.136c1.608 0 2.928 1.32 2.928 2.928 0 1.608-1.32 2.928-2.928 2.928zM447.576 474.872H412.44c-1.608 0-2.928-1.32-2.928-2.928 0-1.608 1.32-2.928 2.928-2.928h35.136c1.608 0 2.928 1.32 2.928 2.928 0 1.608-1.32 2.928-2.928 2.928zM374.376 243.968h111.272v55.768H374.376z"/></g><path fill="#FFF" d="M374.376 312.32h111.272v55.768H374.376z"/><path fill="#999" d="M374.376 380.616h111.272v55.768H374.376z"/></svg>