<svg xmlns="http://www.w3.org/2000/svg" viewBox="0 0 512 512"><path d="M504 4.28H8c-4.41 0-8 3.58-8 8.02v488c0 4.43 3.59 8.02 8.02 8.02h496c4.43 0 8.02-3.59 8.02-8.02v-488c0-4.14-4-7.72-8-7.72zm-8 488H16v-369h480v369zm0-385H16v-86.6h480v86.6z"/><path d="M427 38.5h-94c-4.43 0-8.02 3.59-8.02 8.02s3.59 8.02 8.02 8.02h94.1c4.43 0 8.02-3.59 8.02-8.02 0-4.4-4-8-8-8zM470 38.5h-17.1c-4.43 0-8.02 3.59-8.02 8.02s3.59 8.02 8.02 8.02H470c4.43 0 8.02-3.59 8.02-8.02 0-4.4-4-8-8-8zM265 29.9c-18.6 0-33.7 15.1-33.7 33.7s15.1 33.7 33.7 33.7 33.7-15.1 33.7-33.7-16-33.7-34-33.7zm0 51.3c-9.72 0-17.6-7.91-17.6-17.6S255.31 46 265 46s17.6 7.91 17.6 17.6-9 17.6-18 17.6zM170 29.9c-18.6 0-33.7 15.1-33.7 33.7s15.1 33.7 33.7 33.7 33.7-15.1 33.7-33.7-15-33.7-34-33.7zm0 51.3c-9.72 0-17.6-7.91-17.6-17.6S160.31 46 170 46s17.6 7.91 17.6 17.6-8 17.6-18 17.6zM76.4 29.9c-18.6 0-33.7 15.1-33.7 33.7s15.1 33.7 33.7 33.7 33.7-15.1 33.7-33.7-15-33.7-33.6-33.7zm0 51.3c-9.72 0-17.6-7.91-17.6-17.6S66.71 46 76.4 46 94 53.91 94 63.6s-7.8 17.6-17.6 17.6zM169 232c.174-6.42-2.16-12.5-6.58-17.2s-10.4-7.33-16.8-7.5c-6.4-.175-12.5 2.16-17.2 6.58l-81.2 77c-4.87 4.61-7.6 11.1-7.51 17.8.095 6.7 3.02 13.1 8.01 17.6l81.2 72.7c4.42 3.95 10.1 6.13 16 6.13h.003c6.84 0 13.4-2.92 17.9-8.01 8.84-9.88 8-25.1-1.89-34l-61.8-55.3 62.3-59c6-7 9-13 9-19zm-19 5l-68.6 65c-1.63 1.54-2.53 3.69-2.5 5.94.032 2.24 1 4.36 2.67 5.86l68.3 61.1c3.29 2.95 3.58 8.02.63 11.3-1.54 1.72-3.66 2.67-5.98 2.67-1.97 0-3.87-.725-5.34-2.04l-81.2-72.7c-1.66-1.49-2.64-3.63-2.67-5.86-.03-2.23.88-4.4 2.5-5.93l81.2-77c1.5-1.42 3.45-2.2 5.51-2.2.074 0 .15 0 .222.003 2.14.058 4.13.946 5.6 2.5s2.25 3.59 2.19 5.73c-1 2-2 4-4 5zM465 291l-81.2-77c-9.63-9.12-24.9-8.71-34 .92-9.12 9.63-8.71 24.9.92 34l62.3 59-61.8 55.3c-9.88 8.84-10.7 24.1-1.89 34 4.56 5.09 11.1 8.01 17.9 8.01h.002c5.92 0 11.6-2.18 16-6.13l81.2-72.7c5-4.47 7.92-10.9 8.01-17.6 1-6-2-12-7-17zm-11 23l-81.2 72.7c-1.47 1.32-3.37 2.04-5.34 2.04-2.31 0-4.44-.95-5.98-2.67-2.95-3.29-2.67-8.37.627-11.3l68.3-61.1c1.67-1.49 2.64-3.62 2.67-5.86.032-2.24-.875-4.39-2.5-5.94l-68.6-65c-3.21-3.04-3.35-8.12-.307-11.3 1.57-1.66 3.7-2.5 5.82-2.5 1.98 0 3.96.727 5.51 2.19l81.2 77c1.62 1.54 2.53 3.7 2.5 5.93v.002c-2 2-3 4-4 5zM318 234c-1.67-6.2-5.66-11.4-11.2-14.6-11.5-6.61-26.2-2.65-32.8 8.84l-81.2 141c-6.62 11.5-2.65 26.2 8.84 32.8 3.65 2.1 7.79 3.21 12 3.21 8.58 0 16.6-4.62 20.9-12.1l81.2-141c3-6 3-12 2-18zm-17 10l-81.2 141c-1.43 2.48-4.1 4.02-6.96 4.02-1.41 0-2.75-.36-3.98-1.07-3.83-2.2-5.15-7.12-2.95-10.9l81.2-141c1.48-2.57 4.18-4.01 6.96-4.01 1.36 0 2.73.344 3.99 1.07 1.86 1.07 3.18 2.8 3.74 4.86 1 2 0 4-1 6z"/></svg>