<?xml version="1.0" encoding="UTF-8" standalone="no"?>
<!-- Created with Inkscape (http://www.inkscape.org/) -->

<svg xmlns:dc="http://purl.org/dc/elements/1.1/" xmlns:cc="http://creativecommons.org/ns#" xmlns:rdf="http://www.w3.org/1999/02/22-rdf-syntax-ns#" xmlns:svg="http://www.w3.org/2000/svg" xmlns="http://www.w3.org/2000/svg" xmlns:sodipodi="http://sodipodi.sourceforge.net/DTD/sodipodi-0.dtd" xmlns:inkscape="http://www.inkscape.org/namespaces/inkscape" width="256" height="256" viewBox="0 0 255.99999 256" id="svg2" version="1.1" inkscape:version="0.91 r13725" sodipodi:docname="johnylab-new-logo-2017.svg" inkscape:export-filename=".\favicon.png" inkscape:export-xdpi="90" inkscape:export-ydpi="90">
  <defs id="defs4">















	
	
	
	
	
	
	
</defs>
  <sodipodi:namedview id="base" pagecolor="#ffffff" bordercolor="#666666" borderopacity="1.0" inkscape:pageopacity="0.0" inkscape:pageshadow="2" inkscape:zoom="1" inkscape:cx="118.34849" inkscape:cy="229.87888" inkscape:document-units="px" inkscape:current-layer="layer1" showgrid="false" fit-margin-top="0" fit-margin-left="0" fit-margin-right="0" fit-margin-bottom="0" units="px" />
  <metadata id="metadata7">
    <rdf:RDF>
      <cc:Work rdf:about="">
        <dc:format>image/svg+xml</dc:format>
        <dc:type rdf:resource="http://purl.org/dc/dcmitype/StillImage" />
        <dc:title></dc:title>
      </cc:Work>
    </rdf:RDF>
  </metadata>
  <g inkscape:label="Camada 1" inkscape:groupmode="layer" id="layer1" transform="translate(-193.22569,-501.59989)">
    <rect style="opacity:1;fill:#180206;fill-opacity:1;stroke:none" id="rect4312" width="256" height="256" x="193.22568" y="226.59988" />
    <path d="m 341.67663,536.26172 c -3.96487,0 -3.91485,3.58549 -3.9,10.73553 l 0,50.75645 44.95136,117.00683 c 4.8008,12.49634 -7.00452,12.36513 -11.04965,12.36513 l -100.76894,0 c -12.52219,0 -14.7116,-9.94345 -10.78868,-15.67106 3.92292,-5.72762 37.9299,-35.72795 11.91332,-25.76183 -8.8232,3.37989 -27.29156,21.32787 -29.8284,36.59321 -1.76893,10.64449 8.69641,20.68144 19.23339,20.96683 l 121.59306,0 c 20.6461,-1.46757 18.72931,-14.29591 15.17578,-24.93433 -2.42105,-9.45888 -6.79215,-18.2612 -9.59882,-27.60236 l -34.57617,-97.11506 0,-42.58471 c 6.01577,-2.36334 5.51479,-14.75463 -1.24827,-14.75463 z" id="path3444" inkscape:connector-curvature="0" sodipodi:nodetypes="sccssszscccccccss" style="stroke:none;fill:#ed143d;fill-opacity:1" />
    <path style="color:#000000;font-style:normal;font-variant:normal;font-weight:normal;font-stretch:normal;font-size:medium;line-height:normal;font-family:sans-serif;text-indent:0;text-align:start;text-decoration:none;text-decoration-line:none;text-decoration-style:solid;text-decoration-color:#000000;letter-spacing:normal;word-spacing:normal;text-transform:none;direction:ltr;block-progression:tb;writing-mode:lr-tb;baseline-shift:baseline;text-anchor:start;white-space:normal;clip-rule:nonzero;display:inline;overflow:visible;visibility:visible;opacity:1;isolation:auto;mix-blend-mode:normal;color-interpolation:sRGB;color-interpolation-filters:linearRGB;solid-color:#000000;solid-opacity:1;fill-opacity:1;fill-rule:nonzero;stroke:none;stroke-width:15;stroke-linecap:round;stroke-linejoin:round;stroke-miterlimit:4;stroke-dasharray:none;stroke-dashoffset:0;stroke-opacity:1;color-rendering:auto;image-rendering:auto;shape-rendering:auto;text-rendering:auto;enable-background:accumulate;fill:#ed143d" d="m 290.05526,536.26172 c -6.74029,0 -6.86604,12.33603 -0.89086,14.73408 l 0,153.08212 c 0,10.00322 2.06609,15.47165 13.96357,15.47165 l 64.02192,0 c 6.873,-2.30302 6.30334,-14.71511 -1.07669,-15.82055 l -61.0009,0 0,-152.77787 c 0,-11.55776 0.19915,-14.68943 -4.3145,-14.68943 z" id="rect4270" inkscape:connector-curvature="0" sodipodi:nodetypes="cccccccccc" />
    <path style="opacity:1;fill-opacity:1;stroke:none;fill:#ed143d" d="m 332.42806,561.83815 a 11.413598,11.413598 0 0 1 -11.41361,11.4136 11.413598,11.413598 0 0 1 -11.41359,-11.4136 11.413598,11.413598 0 0 1 11.41359,-11.4136 11.413598,11.413598 0 0 1 11.41361,11.4136 z" id="path4291" inkscape:connector-curvature="0" />
    <path style="opacity:1;fill-opacity:1;stroke:none;fill:#ed143d" d="m 334.40031,532.65975 a 7.7449421,7.7449421 0 0 1 -7.74494,7.74495 7.7449421,7.7449421 0 0 1 -7.74494,-7.74495 7.7449421,7.7449421 0 0 1 7.74494,-7.74494 7.7449421,7.7449421 0 0 1 7.74494,7.74494 z" id="path4293" inkscape:connector-curvature="0" />
    <path style="opacity:1;fill-opacity:1;stroke:none;fill:#ed143d" d="m 311.57308,520.83852 a 4.8915422,4.8915422 0 0 1 -4.89154,4.89154 4.8915422,4.8915422 0 0 1 -4.89154,-4.89154 4.8915422,4.8915422 0 0 1 4.89154,-4.89154 4.8915422,4.8915422 0 0 1 4.89154,4.89154 z" id="path4295" inkscape:connector-curvature="0" />
  </g>
</svg>
