<svg xmlns="http://www.w3.org/2000/svg" height="256" width="256" viewBox="0 0 255.99999 256"><g fill="#ed143d"><path d="M149 34c-3.96 0-3.91 3.59-3.9 10.7v50.8l45 117c4.8 12.5-7 12.4-11 12.4h-101c-12.5 0-14.7-9.94-10.8-15.7 3.92-5.73 37.9-35.7 11.9-25.8-8.82 3.38-27.3 21.3-29.8 36.6-1.77 10.6 8.7 20.7 19.2 21h122c20.6-1.47 18.7-14.3 15.2-24.9-2.42-9.46-6.79-18.3-9.6-27.6l-34.6-97.1V48.8c6.02-2.36 5.51-14.8-1.25-14.8z"/><path d="M97 34c-6.74 0-6.87 12.3-.89 14.7v153c0 10 2.07 15.5 14 15.5h64c6.87-2.3 6.3-14.7-1.08-15.8h-61v-153c0-11.6.198-14.7-4.31-14.7z"/><path d="M139 60a11.4 11.4 0 0 1-11.4 11.4A11.4 11.4 0 0 1 116.2 60a11.4 11.4 0 0 1 11.4-11.4A11.4 11.4 0 0 1 139 60zM141 31a7.74 7.74 0 0 1-7.74 7.74 7.74 7.74 0 0 1-7.74-7.74 7.74 7.74 0 0 1 7.74-7.74A7.74 7.74 0 0 1 141 31zM119 19a4.89 4.89 0 0 1-4.89 4.89 4.89 4.89 0 0 1-4.89-4.89 4.89 4.89 0 0 1 4.89-4.89A4.89 4.89 0 0 1 119 19z"/></g></svg>