<!--<?xml version="1.0" encoding="UTF-8" standalone="no"?>-->
<svg style="enable-background:new 0 0 339.75 339.75" xmlns="http://www.w3.org/2000/svg" xml:space="preserve" viewBox="0 0 339.75 339.75" version="1.1" y="0px" x="0px" xmlns:xlink="http://www.w3.org/1999/xlink">
		<path d="m216 170l114 114c13 13 13 33 0 46-6 6-15 10-23 10s-17-4-23-10l-114-114-114 114c-6 6-15 10-23 10s-17-4-23-10c-13-13-13-33 0-46l114-114-114-114c-13-13-13-33 0-46s33-13 46 0l114 114 114-114c13-13 33-13 46 0s13 33 0 46l-114 114z" fill="#090509"/>
</svg>
