<svg xmlns="http://www.w3.org/2000/svg" viewBox="0 0 300.46 300.46"><path d="M130.63 116.503c-.972-1.496-2.635-2.398-4.42-2.398H79.26V103.01c0-4.344-3.522-7.866-7.867-7.866-4.345 0-7.867 3.522-7.867 7.867v47.887H16.573c-1.784 0-3.447.902-4.42 2.398l-8.457 13.003c-.334.513-.334 1.175 0 1.69l8.457 13.002c.973 1.496 2.636 2.398 4.42 2.398h46.952v101.338H48.89c-4.345 0-7.867 3.522-7.867 7.867s3.522 7.867 7.867 7.867h45.005c4.345 0 7.867-3.522 7.867-7.867s-3.522-7.867-7.867-7.867H79.26V146.594h46.95c1.785 0 3.448-.902 4.42-2.398l8.458-13.003c.334-.513.334-1.175 0-1.69l-8.457-13z"/><circle cx="226.252" cy="40.42" r="23.08"/><path d="M256.05 73.565h-51.47l-24.385-2.85 13.127-15.772c3.934-4.727 3.292-11.75-1.435-15.684-4.728-3.935-11.75-3.292-15.683 1.434l-26.274 31.57c-2.614 3.14-3.298 7.46-1.782 11.256 1.516 3.794 4.99 6.453 9.047 6.93l39.29 4.593.006 192.054c0 7.38 5.984 13.363 13.364 13.363s13.363-5.982 13.363-13.363V180.284h5.77v106.813c0 7.38 5.983 13.363 13.363 13.363s13.363-5.982 13.363-13.363l-.237-187.114c0-1.27 1.016-2.308 2.286-2.33 1.27-.024 2.326.974 2.37 2.244l.41 81.813c.032 6.13 5.01 11.08 11.136 11.08h.057c6.15-.032 11.11-5.043 11.08-11.193l-.41-81.812c-.075-14.458-11.897-26.22-26.355-26.22zM274.453 34.4h9.608v10.166h-9.607zM283.502 0c-5.687 0-10.767 2.717-13.016 7.995l7.5 5.33c.855-.994 2.018-3.842 5.083-3.842 1.867 0 3.718 1.09 3.718 3.1 0 3.495-5.852 5.85-7.624 6.817-4.46 2.316-4.897 5.458-4.897 9.112h9.608c0-1.408 1.28-2.327 2.758-3.16 4.23-2.388 10.382-4.022 10.382-12.707C297.015 4.315 290.92 0 283.502 0z"/></svg>