<svg xmlns="http://www.w3.org/2000/svg" viewBox="0 0 512 512"><path d="M118 318c-26.6 0-48.2 21.6-48.2 48.2s21.6 48.2 48.2 48.2 48.2-21.6 48.2-48.2c0-26-21-48-48-48zm0 81c-17.8 0-32.3-14.5-32.3-32.3s14.5-32.3 32.3-32.3 32.3 14.5 32.3 32.3-14 32-32 32zM116 416c-32.8 0-59.4 26.7-59.4 59.4v28.2c0 4.39 3.56 7.95 7.95 7.95h102c4.32 0 7.86-3.46 7.95-7.78l.602-28.2.002-.17c0-32-27-59-60-59zm43 80H72.5v-20.2c0-24 19.5-43.5 43.5-43.5s43.5 19.5 43.5 43.4l-1 21zM394 318c-26.6 0-48.2 21.6-48.2 48.2s21.6 48.2 48.2 48.2 48.2-21.6 48.2-48.2c0-26-22-48-48-48zm0 81c-17.8 0-32.3-14.5-32.3-32.3s14.5-32.3 32.3-32.3c17.8 0 32.3 14.5 32.3 32.3s-14 32-32 32zM396 416c-32.8 0-59.4 26.7-59.4 59.4 0 .057 0 .113.002.17l.602 28.2c.092 4.32 3.62 7.78 7.95 7.78h101c4.39 0 7.95-3.56 7.95-7.95v-28.2c0-32-26-59-59-59zm-43 80l-.434-20.3c.042-24 19.6-43.5 43.5-43.5 24 0 43.5 19.5 43.5 43.5v20.2h-87zM258 318c-26.6 0-48.2 21.6-48.2 48.2s21.6 48.2 48.2 48.2 48.2-21.6 48.2-48.2c0-26-22-48-48-48zm0 81c-17.8 0-32.3-14.5-32.3-32.3s14.5-32.3 32.3-32.3c17.8 0 32.3 14.5 32.3 32.3s-15 32-32 32zM255 416c-32.8 0-59.4 26.7-59.4 59.4v28.2c0 4.39 3.56 7.95 7.95 7.95h102c4.32 0 7.86-3.46 7.95-7.78l.602-28.2.002-.17c0-32-27-59-60-59zm43 80h-86.6v-20.2c0-24 19.5-43.5 43.5-43.5s43.5 19.5 43.5 43.4v21zM316 83c-.533-3.3-1.35-6.59-2.42-9.76-1.41-4.16-5.92-6.39-10.1-4.98-4.16 1.41-6.39 5.92-4.98 10.1.793 2.34 1.39 4.76 1.79 7.2.63 3.91 4.01 6.68 7.84 6.68.42 0 .847-.033 1.28-.103 4-.7 7-4.8 6-9.1zM303 53.7c-12-13.9-29-21.9-47-21.9-4.39 0-7.95 3.56-7.95 7.95s3.56 7.95 7.95 7.95c13.4 0 26 5.91 34.6 16.2 1.57 1.88 3.83 2.85 6.11 2.85 1.8 0 3.6-.605 5.09-1.85 3-2.9 4-7.9 1-11.3z"/><path d="M387 267H264v-22h26c4.39 0 7.95-3.56 7.95-7.95v-59.4c0-.667-.09-1.31-.246-1.93 30.3-15.3 51.1-46.7 51.1-82.9 0-50.5-42-92.1-93-92.1-51.1 0-92.8 41.6-92.8 92.8 0 36.2 20.8 67.6 51.1 82.9-.155.62-.246 1.26-.246 1.93v59.4c0 4.39 3.56 7.95 7.95 7.95h26V268h-132c-4.39 0-7.95 3.56-7.95 7.95v21.2c0 4.39 3.56 7.95 7.95 7.95s7.95-3.56 7.95-7.95v-13.2h124v13.2c0 4.39 3.56 7.95 7.95 7.95s7.95-3.56 7.95-7.95v-13.2h116v13.2c0 4.39 3.56 7.95 7.95 7.95s7.95-3.56 7.95-7.95v-21.2c-1-5-4-9-9-9zm-105-68h-51.9v-13.8h52v14zm-39-31v-59.3h26.5V168c-4.31.753-8.73 1.17-13.3 1.17s-10 0-14-1zm-16-79.5v4.77h-9.01c-4.39 0-7.95 3.56-7.95 7.95s3.56 7.95 7.95 7.95H227v54.7c-28-11.5-47.7-39-47.7-71.1 0-42.4 34.5-76.9 76.9-76.9s76.9 34.5 76.9 76.9c0 32.1-19.7 59.6-47.7 71.1v-54.7h9.01c4.39 0 7.95-3.56 7.95-7.95s-3.56-7.95-7.95-7.95h-9.01V88.5c0-4.39-3.56-7.95-7.95-7.95s-7.95 3.56-7.95 7.95v4.77h-26V88.5c0-4.39-3.56-7.95-7.95-7.95-5 .4-8 3.9-8 8.3zm29 140h-26v-13.8h51.9v13.8h-26zM128 59.4H95c-4.39 0-7.95 3.56-7.95 7.95S90.61 75.3 95 75.3h33c4.39 0 7.95-3.56 7.95-7.95 0-4.4-4-8-8-8zM143 88.8c-3.11-3.1-8.14-3.1-11.2 0l-21 21c-3.1 3.11-3.1 8.14 0 11.2 1.55 1.55 3.59 2.33 5.62 2.33s4.07-.776 5.62-2.33l21-21c2-3.1 2-8.1-1-11.2zM143 34.8l-21-21c-3.11-3.1-8.14-3.1-11.2 0-3.1 3.11-3.1 8.14 0 11.2l21 21c1.55 1.55 3.59 2.33 5.62 2.33s4.07-.776 5.62-2.33c2-3.1 2-8.1-1-11.2zM425 59.4h-33c-4.39 0-7.95 3.56-7.95 7.95s3.56 7.95 7.95 7.95h33c4.39 0 7.95-3.56 7.95-7.95 0-4.4-3-8-8-8zM410 110l-21-21c-3.11-3.1-8.14-3.1-11.2 0-3.1 3.11-3.1 8.14 0 11.2l21 21c1.55 1.55 3.59 2.33 5.62 2.33s4.07-.776 5.62-2.33c2-3 2-8-1-11zM410 13.8c-3.11-3.1-8.14-3.1-11.2 0l-21 21c-3.1 3.11-3.1 8.14 0 11.2 1.55 1.55 3.59 2.33 5.62 2.33s4.07-.776 5.62-2.33l21-21c2-3.1 2-8.1-1-11.2z"/></svg>