<!--<?xml version="1.0" encoding="UTF-8" standalone="no"?>-->
<svg style="enable-background:new 0 0 512 512" xmlns="http://www.w3.org/2000/svg" xml:space="preserve" viewBox="0 0 512 512" version="1.1" y="0px" x="0px" xmlns:xlink="http://www.w3.org/1999/xlink">
<path d="m118 318c-26.6 0-48.2 21.6-48.2 48.2s21.6 48.2 48.2 48.2 48.2-21.6 48.2-48.2c0-26-21-48-48-48zm0 81c-17.8 0-32.3-14.5-32.3-32.3s14.5-32.3 32.3-32.3 32.3 14.5 32.3 32.3-14 32-32 32z"/>
<path d="m116 416c-32.8 0-59.4 26.7-59.4 59.4v28.2c0 4.39 3.56 7.95 7.95 7.95h102c4.32 0 7.86-3.46 7.95-7.78l0.602-28.2c0.001-0.056 0.002-0.112 0.002-0.17 0-32-27-59-60-59zm43 80h-86.5v-20.2c0-24 19.5-43.5 43.5-43.5s43.5 19.5 43.5 43.4l-1 21z"/>
<path d="m394 318c-26.6 0-48.2 21.6-48.2 48.2s21.6 48.2 48.2 48.2 48.2-21.6 48.2-48.2c0-26-22-48-48-48zm0 81c-17.8 0-32.3-14.5-32.3-32.3s14.5-32.3 32.3-32.3c17.8 0 32.3 14.5 32.3 32.3s-14 32-32 32z"/>
<path d="m396 416c-32.8 0-59.4 26.7-59.4 59.4 0 0.057 0.001 0.113 0.002 0.17l0.602 28.2c0.092 4.32 3.62 7.78 7.95 7.78h101c4.39 0 7.95-3.56 7.95-7.95v-28.2c0-32-26-59-59-59zm-43 80l-0.434-20.3c0.042-24 19.6-43.5 43.5-43.5 24 0 43.5 19.5 43.5 43.5v20.2h-87z"/>
<path d="m258 318c-26.6 0-48.2 21.6-48.2 48.2s21.6 48.2 48.2 48.2 48.2-21.6 48.2-48.2c0-26-22-48-48-48zm0 81c-17.8 0-32.3-14.5-32.3-32.3s14.5-32.3 32.3-32.3c17.8 0 32.3 14.5 32.3 32.3s-15 32-32 32z"/>
<path d="m255 416c-32.8 0-59.4 26.7-59.4 59.4v28.2c0 4.39 3.56 7.95 7.95 7.95h102c4.32 0 7.86-3.46 7.95-7.78l0.602-28.2c0.001-0.056 0.002-0.112 0.002-0.17 0-32-27-59-60-59zm43 80h-86.6v-20.2c0-24 19.5-43.5 43.5-43.5s43.5 19.5 43.5 43.4v21z"/>
<path d="m316 83c-0.533-3.3-1.35-6.59-2.42-9.76-1.41-4.16-5.92-6.39-10.1-4.98-4.16 1.41-6.39 5.92-4.98 10.1 0.793 2.34 1.39 4.76 1.79 7.2 0.631 3.91 4.01 6.68 7.84 6.68 0.42 0 0.847-0.033 1.28-0.103 4-0.7 7-4.8 6-9.1z"/>
<path d="m303 53.7c-12-13.9-29-21.9-47-21.9-4.39 0-7.95 3.56-7.95 7.95s3.56 7.95 7.95 7.95c13.4 0 26 5.91 34.6 16.2 1.57 1.88 3.83 2.85 6.11 2.85 1.8 0 3.6-0.605 5.09-1.85 3-2.9 4-7.9 1-11.3z"/>
<path d="m387 267h-123v-22h26c4.39 0 7.95-3.56 7.95-7.95v-59.4c0-0.667-0.091-1.31-0.246-1.93 30.3-15.3 51.1-46.7 51.1-82.9 0-50.5-42-92.1-93-92.1-51.1 0-92.8 41.6-92.8 92.8 0 36.2 20.8 67.6 51.1 82.9-0.155 0.619-0.246 1.26-0.246 1.93v59.4c0 4.39 3.56 7.95 7.95 7.95h26v22.3h-132c-4.39 0-7.95 3.56-7.95 7.95v21.2c0 4.39 3.56 7.95 7.95 7.95s7.95-3.56 7.95-7.95v-13.2h124v13.2c0 4.39 3.56 7.95 7.95 7.95s7.95-3.56 7.95-7.95v-13.2h116v13.2c0 4.39 3.56 7.95 7.95 7.95s7.95-3.56 7.95-7.95v-21.2c-1-5-4-9-9-9zm-105-68h-51.9v-13.8h52v14zm-39-31v-59.3h26.5v59.3c-4.31 0.753-8.73 1.17-13.3 1.17s-10 0-14-1zm-16-79.5v4.77h-9.01c-4.39 0-7.95 3.56-7.95 7.95s3.56 7.95 7.95 7.95h9.01v54.7c-28-11.5-47.7-39-47.7-71.1 0-42.4 34.5-76.9 76.9-76.9s76.9 34.5 76.9 76.9c0 32.1-19.7 59.6-47.7 71.1v-54.7h9.01c4.39 0 7.95-3.56 7.95-7.95s-3.56-7.95-7.95-7.95h-9.01v-4.77c0-4.39-3.56-7.95-7.95-7.95s-7.95 3.56-7.95 7.95v4.77h-26v-4.77c0-4.39-3.56-7.95-7.95-7.95-5 0.4-8 3.9-8 8.3zm29 140h-26v-13.8h51.9v13.8h-26z"/>
<path d="m128 59.4h-33c-4.39 0-7.95 3.56-7.95 7.95s3.56 7.95 7.95 7.95h33c4.39 0 7.95-3.56 7.95-7.95 0-4.4-4-8-8-8z"/>
<path d="m143 88.8c-3.11-3.1-8.14-3.1-11.2 0l-21 21c-3.1 3.11-3.1 8.14 0 11.2 1.55 1.55 3.59 2.33 5.62 2.33s4.07-0.776 5.62-2.33l21-21c2-3.1 2-8.1-1-11.2z"/>
<path d="m143 34.8l-21-21c-3.11-3.1-8.14-3.1-11.2 0-3.1 3.11-3.1 8.14 0 11.2l21 21c1.55 1.55 3.59 2.33 5.62 2.33s4.07-0.776 5.62-2.33c2-3.1 2-8.1-1-11.2z"/>
<path d="m425 59.4h-33c-4.39 0-7.95 3.56-7.95 7.95s3.56 7.95 7.95 7.95h33c4.39 0 7.95-3.56 7.95-7.95 0-4.4-3-8-8-8z"/>
<path d="m410 110l-21-21c-3.11-3.1-8.14-3.1-11.2 0-3.1 3.11-3.1 8.14 0 11.2l21 21c1.55 1.55 3.59 2.33 5.62 2.33s4.07-0.776 5.62-2.33c2-3 2-8-1-11z"/>
<path d="m410 13.8c-3.11-3.1-8.14-3.1-11.2 0l-21 21c-3.1 3.11-3.1 8.14 0 11.2 1.55 1.55 3.59 2.33 5.62 2.33s4.07-0.776 5.62-2.33l21-21c2-3.1 2-8.1-1-11.2z"/>
</svg>
