<?xml version="1.0" encoding="UTF-8" standalone="no"?>
<!-- Generator: Adobe Illustrator 16.0.0, SVG Export Plug-In . SVG Version: 6.00 Build 0)  -->

<svg xmlns:dc="http://purl.org/dc/elements/1.1/" xmlns:cc="http://creativecommons.org/ns#" xmlns:rdf="http://www.w3.org/1999/02/22-rdf-syntax-ns#" xmlns:svg="http://www.w3.org/2000/svg" xmlns="http://www.w3.org/2000/svg" xmlns:sodipodi="http://sodipodi.sourceforge.net/DTD/sodipodi-0.dtd" xmlns:inkscape="http://www.inkscape.org/namespaces/inkscape" version="1.1" id="Capa_1" x="0px" y="0px" width="50" height="48.584003" viewBox="0 0 50 48.584003" xml:space="preserve" inkscape:version="0.91 r13725" sodipodi:docname="left-quotes.svg"><metadata id="metadata41"><rdf:RDF><cc:Work rdf:about=""><dc:format>image/svg+xml</dc:format><dc:type rdf:resource="http://purl.org/dc/dcmitype/StillImage" /><dc:title></dc:title></cc:Work></rdf:RDF></metadata><defs id="defs39" /><sodipodi:namedview pagecolor="#ffffff" bordercolor="#666666" borderopacity="1" objecttolerance="10" gridtolerance="10" guidetolerance="10" inkscape:pageopacity="0" inkscape:pageshadow="2" inkscape:window-width="640" inkscape:window-height="480" id="namedview37" showgrid="false" fit-margin-top="0" fit-margin-left="0" fit-margin-right="0" fit-margin-bottom="0" inkscape:zoom="1" inkscape:cx="26.749441" inkscape:cy="25.991898" inkscape:current-layer="Capa_1" />
<g id="g3" transform="matrix(2.1261215,0,0,2.1261215,0,-0.70799846)" style="stroke:none;fill:#adadad;fill-opacity:1">
	<path d="m 8.075,0.333 c 0.594,0 1.504,0.041 2.729,0.119 l 0,4.569 c -3.722,0 -5.578,1.722 -5.578,5.164 l 0.06,2.077 3.856,0 0,10.92 -9.142,0 0,-11.809 C 0.001,4.012 2.693,0.333 8.075,0.333 Z m 15.442,4.689 0,-4.569 C 22.452,0.375 21.7,0.334 21.263,0.334 c -5.381,0 -8.071,3.68 -8.071,11.041 l 0,11.809 9.141,0 0,-10.92 -3.857,0 -0.059,-2.077 c -0.005,-3.245 1.698,-4.966 5.1,-5.165 z" id="path5" inkscape:connector-curvature="0" style="stroke:none;fill:#adadad;fill-opacity:1" />
</g>
<g id="g7" transform="translate(14.990941,10.833605)">
</g>
<g id="g9" transform="translate(14.990941,10.833605)">
</g>
<g id="g11" transform="translate(14.990941,10.833605)">
</g>
<g id="g13" transform="translate(14.990941,10.833605)">
</g>
<g id="g15" transform="translate(14.990941,10.833605)">
</g>
<g id="g17" transform="translate(14.990941,10.833605)">
</g>
<g id="g19" transform="translate(14.990941,10.833605)">
</g>
<g id="g21" transform="translate(14.990941,10.833605)">
</g>
<g id="g23" transform="translate(14.990941,10.833605)">
</g>
<g id="g25" transform="translate(14.990941,10.833605)">
</g>
<g id="g27" transform="translate(14.990941,10.833605)">
</g>
<g id="g29" transform="translate(14.990941,10.833605)">
</g>
<g id="g31" transform="translate(14.990941,10.833605)">
</g>
<g id="g33" transform="translate(14.990941,10.833605)">
</g>
<g id="g35" transform="translate(14.990941,10.833605)">
</g>
</svg>